<?xml version="1.0" encoding="UTF-8"?>
<svg xmlns="http://www.w3.org/2000/svg" version="1.1" viewBox="0 0 35 36.3">
  <defs>
    <style>
      .cls-1, .cls-2 {
        isolation: isolate;
      }

      .cls-3, .cls-2 {
        fill: #fff;
      }

      .cls-2 {
        font-family: Rajdhani-Light, Rajdhani;
        font-size: 30px;
        font-weight: 300;
      }

      .cls-4 {
        fill: #161616;
      }
    </style>
  </defs>
  <!-- Generator: Adobe Illustrator 28.7.1, SVG Export Plug-In . SVG Version: 1.2.0 Build 142)  -->
  <g>
    <g id="Layer_1">
      <g id="Layer_1-2" data-name="Layer_1">
        <g id="Layer_1-2">
          <g>
            <path class="cls-4" d="M17.5,34.5C8.1,34.5.5,26.9.5,17.5S8.1.5,17.5.5s17,7.6,17,17-7.6,17-17,17Z"/>
            <path class="cls-3" d="M17.5,1c9.1,0,16.5,7.4,16.5,16.5s-7.4,16.5-16.5,16.5S1,26.6,1,17.5,8.4,1,17.5,1M17.5,0C7.8,0,0,7.8,0,17.5s7.8,17.5,17.5,17.5,17.5-7.8,17.5-17.5S27.2,0,17.5,0h0Z"/>
          </g>
          <g class="cls-1">
            <g class="cls-1">
              <g class="cls-1">
                <text class="cls-2" transform="translate(5.4 27.1)"><tspan x="0" y="0">IB</tspan></text>
              </g>
            </g>
          </g>
        </g>
      </g>
    </g>
  </g>
</svg>